{
	"asset":{
		"generator":"Khronos glTF Blender I/O v3.5.30",
		"version":"2.0"
	},
	"scene":0,
	"scenes":[
		{
			"name":"Scene",
			"nodes":[
				0
			]
		}
	],
	"nodes":[
		{
			"mesh":0,
			"name":"cejas_male1:Group64698",
			"rotation":[
				0.7071068286895752,
				0,
				0,
				0.7071068286895752
			]
		}
	],
	"materials":[
		{
			"doubleSided":true,
			"name":"standardSurface1.003",
			"pbrMetallicRoughness":{
				"metallicFactor":0,
				"roughnessFactor":0.5527864098548889
			}
		}
	],
	"meshes":[
		{
			"name":"Malla.003",
			"primitives":[
				{
					"attributes":{
						"POSITION":0,
						"NORMAL":1
					},
					"indices":2,
					"material":0
				}
			]
		}
	],
	"accessors":[
		{
			"bufferView":0,
			"componentType":5126,
			"count":27633,
			"max":[
				1.5063602924346924,
				0.761770486831665,
				-2.1387014389038086
			],
			"min":[
				-1.5063605308532715,
				0.43535763025283813,
				-2.4195895195007324
			],
			"type":"VEC3"
		},
		{
			"bufferView":1,
			"componentType":5126,
			"count":27633,
			"type":"VEC3"
		},
		{
			"bufferView":2,
			"componentType":5123,
			"count":32214,
			"type":"SCALAR"
		}
	],
	"bufferViews":[
		{
			"buffer":0,
			"byteLength":331596,
			"byteOffset":0,
			"target":34962
		},
		{
			"buffer":0,
			"byteLength":331596,
			"byteOffset":331596,
			"target":34962
		},
		{
			"buffer":0,
			"byteLength":64428,
			"byteOffset":663192,
			"target":34963
		}
	],
	"buffers":[
		{
			"byteLength":727620,
			"uri":"data:application/octet-stream;base64,"
		}
	]
}
