{
	"asset":{
		"generator":"Khronos glTF Blender I/O v3.5.30",
		"version":"2.0"
	},
	"scene":0,
	"scenes":[
		{
			"name":"Scene",
			"nodes":[
				0
			]
		}
	],
	"nodes":[
		{
			"mesh":0,
			"name":"cuerpo_male:Group30086",
			"rotation":[
				0.7071068286895752,
				0,
				0,
				0.7071068286895752
			]
		}
	],
	"materials":[
		{
			"doubleSided":true,
			"name":"standardSurface1.007",
			"pbrMetallicRoughness":{
				"metallicFactor":0,
				"roughnessFactor":0.5527864098548889
			}
		}
	],
	"meshes":[
		{
			"name":"Malla.007",
			"primitives":[
				{
					"attributes":{
						"POSITION":0,
						"NORMAL":1
					},
					"indices":2,
					"material":0
				}
			]
		}
	],
	"accessors":[
		{
			"bufferView":0,
			"componentType":5126,
			"count":60584,
			"max":[
				1.3359931707382202,
				0.01009494997560978,
				2.8423917293548584
			],
			"min":[
				-1.322949767112732,
				-1.1608120203018188,
				-0.7047595977783203
			],
			"type":"VEC3"
		},
		{
			"bufferView":1,
			"componentType":5126,
			"count":60584,
			"type":"VEC3"
		},
		{
			"bufferView":2,
			"componentType":5123,
			"count":66006,
			"type":"SCALAR"
		}
	],
	"bufferViews":[
		{
			"buffer":0,
			"byteLength":727008,
			"byteOffset":0,
			"target":34962
		},
		{
			"buffer":0,
			"byteLength":727008,
			"byteOffset":727008,
			"target":34962
		},
		{
			"buffer":0,
			"byteLength":132012,
			"byteOffset":1454016,
			"target":34963
		}
	],
	"buffers":[
		{
			"byteLength":1586028,
			"uri":"data:application/octet-stream;base64,"
		}
	]
}
