{
	"asset":{
		"generator":"Khronos glTF Blender I/O v3.5.30",
		"version":"2.0"
	},
	"scene":0,
	"scenes":[
		{
			"name":"Scene",
			"nodes":[
				0
			]
		}
	],
	"nodes":[
		{
			"mesh":0,
			"name":"pelo_corto_male:Group7535",
			"rotation":[
				0.7071068286895752,
				0,
				0,
				0.7071068286895752
			]
		}
	],
	"materials":[
		{
			"doubleSided":true,
			"name":"standardSurface1.007",
			"pbrMetallicRoughness":{
				"metallicFactor":0,
				"roughnessFactor":0.5527864098548889
			}
		}
	],
	"meshes":[
		{
			"name":"Malla.007",
			"primitives":[
				{
					"attributes":{
						"POSITION":0,
						"NORMAL":1
					},
					"indices":2,
					"material":0
				}
			]
		}
	],
	"accessors":[
		{
			"bufferView":0,
			"componentType":5126,
			"count":37910,
			"max":[
				1.8524034023284912,
				0.8703218698501587,
				-0.591861367225647
			],
			"min":[
				-1.8522300720214844,
				-2.3664112091064453,
				-3.806215524673462
			],
			"type":"VEC3"
		},
		{
			"bufferView":1,
			"componentType":5126,
			"count":37910,
			"type":"VEC3"
		},
		{
			"bufferView":2,
			"componentType":5123,
			"count":40182,
			"type":"SCALAR"
		}
	],
	"bufferViews":[
		{
			"buffer":0,
			"byteLength":454920,
			"byteOffset":0,
			"target":34962
		},
		{
			"buffer":0,
			"byteLength":454920,
			"byteOffset":454920,
			"target":34962
		},
		{
			"buffer":0,
			"byteLength":80364,
			"byteOffset":909840,
			"target":34963
		}
	],
	"buffers":[
		{
			"byteLength":990204,
			"uri":"data:application/octet-stream;base64,"
		}
	]
}
