{
	"asset":{
		"generator":"Khronos glTF Blender I/O v3.5.30",
		"version":"2.0"
	},
	"scene":0,
	"scenes":[
		{
			"name":"Scene",
			"nodes":[
				0
			]
		}
	],
	"nodes":[
		{
			"mesh":0,
			"name":"zapatillas tipo nike",
			"rotation":[
				0.7071068286895752,
				0,
				0,
				0.7071068286895752
			]
		}
	],
	"materials":[
		{
			"doubleSided":true,
			"name":"Default OBJ",
			"pbrMetallicRoughness":{
				"baseColorFactor":[
					0.800000011920929,
					0.800000011920929,
					0.800000011920929,
					1
				],
				"metallicFactor":0,
				"roughnessFactor":0.5
			}
		}
	],
	"meshes":[
		{
			"name":"zapatillas tipo nike",
			"primitives":[
				{
					"attributes":{
						"POSITION":0,
						"NORMAL":1
					},
					"indices":2,
					"material":0
				}
			]
		}
	],
	"accessors":[
		{
			"bufferView":0,
			"componentType":5126,
			"count":55513,
			"max":[
				0.8358638286590576,
				0.12548278272151947,
				2.9144814014434814
			],
			"min":[
				-0.835865318775177,
				-1.0318654775619507,
				2.1681711673736572
			],
			"type":"VEC3"
		},
		{
			"bufferView":1,
			"componentType":5126,
			"count":55513,
			"type":"VEC3"
		},
		{
			"bufferView":2,
			"componentType":5123,
			"count":55530,
			"type":"SCALAR"
		}
	],
	"bufferViews":[
		{
			"buffer":0,
			"byteLength":666156,
			"byteOffset":0,
			"target":34962
		},
		{
			"buffer":0,
			"byteLength":666156,
			"byteOffset":666156,
			"target":34962
		},
		{
			"buffer":0,
			"byteLength":111060,
			"byteOffset":1332312,
			"target":34963
		}
	],
	"buffers":[
		{
			"byteLength":1443372,
			"uri":"data:application/octet-stream;base64,"
		}
	]
}
