{
    "asset" : {
        "generator" : "Khronos glTF Blender I/O v3.3.32",
        "version" : "2.0"
    },
    "scene" : 0,
    "scenes" : [
        {
            "name" : "Scene",
            "nodes" : [
                0
            ]
        }
    ],
    "nodes" : [
        {
            "mesh" : 0,
            "name" : "gorra_1",
            "rotation" : [
                0.666711688041687,
                -0.012608932331204414,
                -0.011661087162792683,
                0.7451179027557373
            ],
            "scale" : [
                0.9347081780433655,
                0.9347081780433655,
                0.9347081780433655
            ],
            "translation" : [
                -0.06647093594074249,
                0.2292754352092743,
                0.203450545668602
            ]
        }
    ],
    "materials" : [
        {
            "doubleSided" : true,
            "name" : "lambert104",
            "pbrMetallicRoughness" : {
                "baseColorFactor" : [
                    0.5,
                    0.5,
                    0.5,
                    1
                ],
                "metallicFactor" : 0,
                "roughnessFactor" : 0.5527864098548889
            }
        }
    ],
    "meshes" : [
        {
            "name" : "Mesh.004",
            "primitives" : [
                {
                    "attributes" : {
                        "POSITION" : 0,
                        "NORMAL" : 1,
                        "TEXCOORD_0" : 2,
                        "TEXCOORD_1" : 3
                    },
                    "indices" : 4,
                    "material" : 0
                }
            ]
        }
    ],
    "accessors" : [
        {
            "bufferView" : 0,
            "componentType" : 5126,
            "count" : 687,
            "max" : [
                1.8368834257125854,
                2.408838987350464,
                -1.823529601097107
            ],
            "min" : [
                -1.8368834257125854,
                -2.7266318798065186,
                -3.967588186264038
            ],
            "type" : "VEC3"
        },
        {
            "bufferView" : 1,
            "componentType" : 5126,
            "count" : 687,
            "type" : "VEC3"
        },
        {
            "bufferView" : 2,
            "componentType" : 5126,
            "count" : 687,
            "type" : "VEC2"
        },
        {
            "bufferView" : 3,
            "componentType" : 5126,
            "count" : 687,
            "type" : "VEC2"
        },
        {
            "bufferView" : 4,
            "componentType" : 5123,
            "count" : 3732,
            "type" : "SCALAR"
        }
    ],
    "bufferViews" : [
        {
            "buffer" : 0,
            "byteLength" : 8244,
            "byteOffset" : 0,
            "target" : 34962
        },
        {
            "buffer" : 0,
            "byteLength" : 8244,
            "byteOffset" : 8244,
            "target" : 34962
        },
        {
            "buffer" : 0,
            "byteLength" : 5496,
            "byteOffset" : 16488,
            "target" : 34962
        },
        {
            "buffer" : 0,
            "byteLength" : 5496,
            "byteOffset" : 21984,
            "target" : 34962
        },
        {
            "buffer" : 0,
            "byteLength" : 7464,
            "byteOffset" : 27480,
            "target" : 34963
        }
    ],
    "buffers" : [
        {
            "byteLength" : 34944,
            "uri" : "data:application/octet-stream;base64,"
        }
    ]
}
