{
    "asset" : {
        "generator" : "Khronos glTF Blender I/O v3.3.32",
        "version" : "2.0"
    },
    "scene" : 0,
    "scenes" : [
        {
            "name" : "Scene",
            "nodes" : [
                0
            ]
        }
    ],
    "nodes" : [
        {
            "mesh" : 0,
            "name" : "pulsera_8",
            "rotation" : [
                0.7071068286895752,
                0,
                0,
                0.7071067094802856
            ]
        }
    ],
    "materials" : [
        {
            "doubleSided" : true,
            "name" : "lambert167",
            "pbrMetallicRoughness" : {
                "baseColorFactor" : [
                    0.5,
                    0.5,
                    0.5,
                    1
                ],
                "metallicFactor" : 0,
                "roughnessFactor" : 0.5527864098548889
            }
        },
        {
            "doubleSided" : true,
            "name" : "lambert1",
            "pbrMetallicRoughness" : {
                "metallicFactor" : 0,
                "roughnessFactor" : 0.5527864098548889
            }
        }
    ],
    "meshes" : [
        {
            "name" : "Mesh.005",
            "primitives" : [
                {
                    "attributes" : {
                        "POSITION" : 0,
                        "NORMAL" : 1,
                        "TEXCOORD_0" : 2
                    },
                    "indices" : 3,
                    "material" : 0
                },
                {
                    "attributes" : {
                        "POSITION" : 4,
                        "NORMAL" : 5,
                        "TEXCOORD_0" : 6
                    },
                    "indices" : 7,
                    "material" : 1
                }
            ]
        }
    ],
    "accessors" : [
        {
            "bufferView" : 0,
            "componentType" : 5126,
            "count" : 257,
            "max" : [
                -0.9504364132881165,
                -0.49050894379615784,
                1.1123313903808594
            ],
            "min" : [
                -1.3105446100234985,
                -0.933181643486023,
                0.87124103307724
            ],
            "type" : "VEC3"
        },
        {
            "bufferView" : 1,
            "componentType" : 5126,
            "count" : 257,
            "type" : "VEC3"
        },
        {
            "bufferView" : 2,
            "componentType" : 5126,
            "count" : 257,
            "type" : "VEC2"
        },
        {
            "bufferView" : 3,
            "componentType" : 5123,
            "count" : 1344,
            "type" : "SCALAR"
        },
        {
            "bufferView" : 4,
            "componentType" : 5126,
            "count" : 811,
            "max" : [
                -1.1959792375564575,
                -0.5912836194038391,
                1.0753586292266846
            ],
            "min" : [
                -1.3605926036834717,
                -0.8597769737243652,
                0.8050764799118042
            ],
            "type" : "VEC3"
        },
        {
            "bufferView" : 5,
            "componentType" : 5126,
            "count" : 811,
            "type" : "VEC3"
        },
        {
            "bufferView" : 6,
            "componentType" : 5126,
            "count" : 811,
            "type" : "VEC2"
        },
        {
            "bufferView" : 7,
            "componentType" : 5123,
            "count" : 4416,
            "type" : "SCALAR"
        }
    ],
    "bufferViews" : [
        {
            "buffer" : 0,
            "byteLength" : 3084,
            "byteOffset" : 0,
            "target" : 34962
        },
        {
            "buffer" : 0,
            "byteLength" : 3084,
            "byteOffset" : 3084,
            "target" : 34962
        },
        {
            "buffer" : 0,
            "byteLength" : 2056,
            "byteOffset" : 6168,
            "target" : 34962
        },
        {
            "buffer" : 0,
            "byteLength" : 2688,
            "byteOffset" : 8224,
            "target" : 34963
        },
        {
            "buffer" : 0,
            "byteLength" : 9732,
            "byteOffset" : 10912,
            "target" : 34962
        },
        {
            "buffer" : 0,
            "byteLength" : 9732,
            "byteOffset" : 20644,
            "target" : 34962
        },
        {
            "buffer" : 0,
            "byteLength" : 6488,
            "byteOffset" : 30376,
            "target" : 34962
        },
        {
            "buffer" : 0,
            "byteLength" : 8832,
            "byteOffset" : 36864,
            "target" : 34963
        }
    ],
    "buffers" : [
        {
            "byteLength" : 45696,
            "uri" : "data:application/octet-stream;base64,"
        }
    ]
}
