{
    "asset" : {
        "generator" : "Khronos glTF Blender I/O v3.3.32",
        "version" : "2.0"
    },
    "scene" : 0,
    "scenes" : [
        {
            "name" : "Scene",
            "nodes" : [
                0
            ]
        }
    ],
    "nodes" : [
        {
            "mesh" : 0,
            "name" : "trajes_3",
            "rotation" : [
                0.7071068286895752,
                0,
                0,
                0.7071067094802856
            ]
        }
    ],
    "materials" : [
        {
            "doubleSided" : true,
            "name" : "blinn5",
            "pbrMetallicRoughness" : {
                "baseColorFactor" : [
                    0.5,
                    0.5,
                    0.5,
                    1
                ],
                "metallicFactor" : 0.5,
                "roughnessFactor" : 0.7487671971321106
            }
        }
    ],
    "meshes" : [
        {
            "name" : "Mesh.005",
            "primitives" : [
                {
                    "attributes" : {
                        "POSITION" : 0,
                        "NORMAL" : 1,
                        "TEXCOORD_0" : 2,
                        "TEXCOORD_1" : 3
                    },
                    "indices" : 4,
                    "material" : 0
                }
            ]
        }
    ],
    "accessors" : [
        {
            "bufferView" : 0,
            "componentType" : 5126,
            "count" : 8164,
            "max" : [
                1.4582198858261108,
                0.03114693984389305,
                2.4557034969329834
            ],
            "min" : [
                -1.4404844045639038,
                -1.1010254621505737,
                -0.3949149250984192
            ],
            "type" : "VEC3"
        },
        {
            "bufferView" : 1,
            "componentType" : 5126,
            "count" : 8164,
            "type" : "VEC3"
        },
        {
            "bufferView" : 2,
            "componentType" : 5126,
            "count" : 8164,
            "type" : "VEC2"
        },
        {
            "bufferView" : 3,
            "componentType" : 5126,
            "count" : 8164,
            "type" : "VEC2"
        },
        {
            "bufferView" : 4,
            "componentType" : 5123,
            "count" : 20559,
            "type" : "SCALAR"
        }
    ],
    "bufferViews" : [
        {
            "buffer" : 0,
            "byteLength" : 97968,
            "byteOffset" : 0,
            "target" : 34962
        },
        {
            "buffer" : 0,
            "byteLength" : 97968,
            "byteOffset" : 97968,
            "target" : 34962
        },
        {
            "buffer" : 0,
            "byteLength" : 65312,
            "byteOffset" : 195936,
            "target" : 34962
        },
        {
            "buffer" : 0,
            "byteLength" : 65312,
            "byteOffset" : 261248,
            "target" : 34962
        },
        {
            "buffer" : 0,
            "byteLength" : 41118,
            "byteOffset" : 326560,
            "target" : 34963
        }
    ],
    "buffers" : [
        {
            "byteLength" : 367680,
            "uri" : "data:application/octet-stream;base64,"
        }
    ]
}
