{
    "asset" : {
        "generator" : "Khronos glTF Blender I/O v3.3.32",
        "version" : "2.0"
    },
    "scene" : 0,
    "scenes" : [
        {
            "name" : "Scene",
            "nodes" : [
                0
            ]
        }
    ],
    "nodes" : [
        {
            "mesh" : 0,
            "name" : "pelo_64",
            "rotation" : [
                0.7071068286895752,
                0,
                0,
                0.7071067094802856
            ]
        }
    ],
    "materials" : [
        {
            "doubleSided" : true,
            "name" : "lambert278",
            "pbrMetallicRoughness" : {
                "baseColorFactor" : [
                    0.15389999747276306,
                    0.15389999747276306,
                    0.15389999747276306,
                    1
                ],
                "metallicFactor" : 0,
                "roughnessFactor" : 0.5527864098548889
            }
        }
    ],
    "meshes" : [
        {
            "name" : "Mesh.024",
            "primitives" : [
                {
                    "attributes" : {
                        "POSITION" : 0,
                        "NORMAL" : 1,
                        "TEXCOORD_0" : 2
                    },
                    "indices" : 3,
                    "material" : 0
                }
            ]
        }
    ],
    "accessors" : [
        {
            "bufferView" : 0,
            "componentType" : 5126,
            "count" : 7593,
            "max" : [
                1.959660291671753,
                0.7166305780410767,
                1.011066198348999
            ],
            "min" : [
                -1.9741015434265137,
                -2.9804837703704834,
                -3.4341988563537598
            ],
            "type" : "VEC3"
        },
        {
            "bufferView" : 1,
            "componentType" : 5126,
            "count" : 7593,
            "type" : "VEC3"
        },
        {
            "bufferView" : 2,
            "componentType" : 5126,
            "count" : 7593,
            "type" : "VEC2"
        },
        {
            "bufferView" : 3,
            "componentType" : 5123,
            "count" : 35088,
            "type" : "SCALAR"
        }
    ],
    "bufferViews" : [
        {
            "buffer" : 0,
            "byteLength" : 91116,
            "byteOffset" : 0,
            "target" : 34962
        },
        {
            "buffer" : 0,
            "byteLength" : 91116,
            "byteOffset" : 91116,
            "target" : 34962
        },
        {
            "buffer" : 0,
            "byteLength" : 60744,
            "byteOffset" : 182232,
            "target" : 34962
        },
        {
            "buffer" : 0,
            "byteLength" : 70176,
            "byteOffset" : 242976,
            "target" : 34963
        }
    ],
    "buffers" : [
        {
            "byteLength" : 313152,
            "uri" : "data:application/octet-stream;base64,"
        }
    ]
}
