{
    "asset" : {
        "generator" : "Khronos glTF Blender I/O v3.3.32",
        "version" : "2.0"
    },
    "scene" : 0,
    "scenes" : [
        {
            "name" : "Scene",
            "nodes" : [
                0
            ]
        }
    ],
    "nodes" : [
        {
            "mesh" : 0,
            "name" : "pelo_60",
            "rotation" : [
                0.7071068286895752,
                0,
                0,
                0.7071067094802856
            ]
        }
    ],
    "materials" : [
        {
            "doubleSided" : true,
            "name" : "lambert277",
            "pbrMetallicRoughness" : {
                "baseColorFactor" : [
                    0.14139999449253082,
                    0.14139999449253082,
                    0.14139999449253082,
                    1
                ],
                "metallicFactor" : 0,
                "roughnessFactor" : 0.5527864098548889
            }
        }
    ],
    "meshes" : [
        {
            "name" : "Mesh.020",
            "primitives" : [
                {
                    "attributes" : {
                        "POSITION" : 0,
                        "NORMAL" : 1,
                        "TEXCOORD_0" : 2
                    },
                    "indices" : 3,
                    "material" : 0
                }
            ]
        }
    ],
    "accessors" : [
        {
            "bufferView" : 0,
            "componentType" : 5126,
            "count" : 9659,
            "max" : [
                1.6213560104370117,
                0.7219637036323547,
                1.60781991481781
            ],
            "min" : [
                -1.6213560104370117,
                -2.38288950920105,
                -3.410329580307007
            ],
            "type" : "VEC3"
        },
        {
            "bufferView" : 1,
            "componentType" : 5126,
            "count" : 9659,
            "type" : "VEC3"
        },
        {
            "bufferView" : 2,
            "componentType" : 5126,
            "count" : 9659,
            "type" : "VEC2"
        },
        {
            "bufferView" : 3,
            "componentType" : 5123,
            "count" : 49266,
            "type" : "SCALAR"
        }
    ],
    "bufferViews" : [
        {
            "buffer" : 0,
            "byteLength" : 115908,
            "byteOffset" : 0,
            "target" : 34962
        },
        {
            "buffer" : 0,
            "byteLength" : 115908,
            "byteOffset" : 115908,
            "target" : 34962
        },
        {
            "buffer" : 0,
            "byteLength" : 77272,
            "byteOffset" : 231816,
            "target" : 34962
        },
        {
            "buffer" : 0,
            "byteLength" : 98532,
            "byteOffset" : 309088,
            "target" : 34963
        }
    ],
    "buffers" : [
        {
            "byteLength" : 407620,
            "uri" : "data:application/octet-stream;base64,"
        }
    ]
}
