{
    "asset" : {
        "generator" : "Khronos glTF Blender I/O v3.3.32",
        "version" : "2.0"
    },
    "scene" : 0,
    "scenes" : [
        {
            "name" : "Scene",
            "nodes" : [
                0
            ]
        }
    ],
    "nodes" : [
        {
            "mesh" : 0,
            "name" : "pelo_73",
            "rotation" : [
                0.7071068286895752,
                0,
                0,
                0.7071067094802856
            ]
        }
    ],
    "materials" : [
        {
            "doubleSided" : true,
            "name" : "lambert279",
            "pbrMetallicRoughness" : {
                "baseColorFactor" : [
                    0.363095223903656,
                    0.363095223903656,
                    0.363095223903656,
                    1
                ],
                "metallicFactor" : 0,
                "roughnessFactor" : 0.5527864098548889
            }
        }
    ],
    "meshes" : [
        {
            "name" : "Mesh.033",
            "primitives" : [
                {
                    "attributes" : {
                        "POSITION" : 0,
                        "NORMAL" : 1,
                        "TEXCOORD_0" : 2
                    },
                    "indices" : 3,
                    "material" : 0
                }
            ]
        }
    ],
    "accessors" : [
        {
            "bufferView" : 0,
            "componentType" : 5126,
            "count" : 5496,
            "max" : [
                2.1972222328186035,
                0.7008958458900452,
                0.8081650137901306
            ],
            "min" : [
                -2.1972222328186035,
                -3.119225025177002,
                -4.410288333892822
            ],
            "type" : "VEC3"
        },
        {
            "bufferView" : 1,
            "componentType" : 5126,
            "count" : 5496,
            "type" : "VEC3"
        },
        {
            "bufferView" : 2,
            "componentType" : 5126,
            "count" : 5496,
            "type" : "VEC2"
        },
        {
            "bufferView" : 3,
            "componentType" : 5123,
            "count" : 26388,
            "type" : "SCALAR"
        }
    ],
    "bufferViews" : [
        {
            "buffer" : 0,
            "byteLength" : 65952,
            "byteOffset" : 0,
            "target" : 34962
        },
        {
            "buffer" : 0,
            "byteLength" : 65952,
            "byteOffset" : 65952,
            "target" : 34962
        },
        {
            "buffer" : 0,
            "byteLength" : 43968,
            "byteOffset" : 131904,
            "target" : 34962
        },
        {
            "buffer" : 0,
            "byteLength" : 52776,
            "byteOffset" : 175872,
            "target" : 34963
        }
    ],
    "buffers" : [
        {
            "byteLength" : 228648,
            "uri" : "data:application/octet-stream;base64,"
        }
    ]
}
